<svg width="100" height="100" viewBox="0 0 100 100" fill="none" xmlns="http://www.w3.org/2000/svg">
<path d="M14.3358 67.5778L23.7889 14.0231C23.855 13.6189 24.0008 13.2319 24.218 12.8846C24.4352 12.5374 24.7193 12.2368 25.0538 12.0005C25.3882 11.7642 25.7664 11.5968 26.1663 11.5081C26.5661 11.4195 26.9796 11.4113 27.3827 11.484L48.9452 15.2731C49.7598 15.4254 50.4822 15.8913 50.957 16.5707C51.4318 17.25 51.6211 18.0885 51.4842 18.9059L41.992 72.7731C41.342 76.4002 39.298 79.6289 36.2974 81.7679C33.2969 83.907 29.5782 84.7866 25.9373 84.2184C18.1639 82.9684 12.9686 75.3512 14.3358 67.5778Z" stroke="white" stroke-width="3" stroke-linecap="round" stroke-linejoin="round"/>
<path d="M46.2097 48.75L74.6863 38.3984C75.0734 38.2555 75.4851 38.1906 75.8974 38.2076C76.3098 38.2246 76.7147 38.3231 77.0887 38.4974C77.4628 38.6718 77.7987 38.9185 78.0769 39.2233C78.3551 39.5281 78.5702 39.885 78.7097 40.2734L86.2097 60.8203C86.4863 61.5974 86.4445 62.4524 86.0932 63.1988C85.742 63.9452 85.1099 64.5225 84.3347 64.8047L32.9285 83.5156" stroke="white" stroke-width="3" stroke-linecap="round" stroke-linejoin="round"/>
<path d="M85.9375 63.4766V81.25C85.9375 82.0788 85.6083 82.8737 85.0222 83.4597C84.4362 84.0458 83.6413 84.375 82.8125 84.375H28.125" stroke="white" stroke-width="3" stroke-linecap="round" stroke-linejoin="round"/>
<path d="M28.125 75C30.7138 75 32.8125 72.9013 32.8125 70.3125C32.8125 67.7237 30.7138 65.625 28.125 65.625C25.5362 65.625 23.4375 67.7237 23.4375 70.3125C23.4375 72.9013 25.5362 75 28.125 75Z" fill="white"/>
</svg>
