<svg width="24" height="24" viewBox="0 0 24 24" fill="none" xmlns="http://www.w3.org/2000/svg">
<path fill-rule="evenodd" clip-rule="evenodd" d="M10.875 3.75C6.93997 3.75 3.75 6.93997 3.75 10.875C3.75 14.81 6.93997 18 10.875 18C14.81 18 18 14.81 18 10.875C18 6.93997 14.81 3.75 10.875 3.75ZM2.25 10.875C2.25 6.11154 6.11154 2.25 10.875 2.25C15.6385 2.25 19.5 6.11154 19.5 10.875C19.5 15.6385 15.6385 19.5 10.875 19.5C6.11154 19.5 2.25 15.6385 2.25 10.875Z" fill="white"/>
<path fill-rule="evenodd" clip-rule="evenodd" d="M15.9135 15.9133C16.2064 15.6204 16.6813 15.6204 16.9742 15.9133L21.5304 20.4695C21.8233 20.7624 21.8233 21.2373 21.5304 21.5302C21.2375 21.8231 20.7627 21.8231 20.4698 21.5302L15.9135 16.9739C15.6206 16.681 15.6206 16.2062 15.9135 15.9133Z" fill="white"/>
</svg>
